<?xml version="1.0" standalone="no"?>
<!DOCTYPE svg PUBLIC "-//W3C//DTD SVG 20010904//EN"
 "http://www.w3.org/TR/2001/REC-SVG-20010904/DTD/svg10.dtd">
<svg version="1.0" xmlns="http://www.w3.org/2000/svg"
 width="507.000000pt" height="507.000000pt" viewBox="0 0 507.000000 507.000000"
 preserveAspectRatio="xMidYMid meet">
<metadata>
Created by potrace 1.11, written by Peter Selinger 2001-2013
</metadata>
<g transform="translate(0.000000,507.000000) scale(0.100000,-0.100000)"
fill="#000000" stroke="none">
<path d="M2318 4805 c-20 -14 -39 -34 -43 -45 -6 -19 -8 -18 -44 10 -50 41
-96 47 -139 20 -69 -43 -79 -142 -25 -243 34 -62 44 -73 106 -112 37 -23 47
-34 43 -50 -3 -11 -10 -247 -16 -525 -9 -469 -20 -938 -22 -967 -1 -7 -29 13
-62 45 -34 32 -80 71 -103 87 -24 15 -40 32 -36 38 3 5 1 7 -4 4 -6 -4 -44 9
-85 28 -118 56 -214 77 -353 77 -89 0 -140 -5 -196 -20 -86 -23 -234 -87 -264
-115 -10 -9 -26 -15 -34 -12 -9 3 -12 3 -8 -1 3 -4 -3 -16 -16 -26 -58 -50
-137 -129 -137 -138 0 -5 -6 -13 -14 -17 -23 -14 -104 -174 -136 -273 -44
-132 -49 -232 -20 -370 12 -58 31 -129 43 -159 13 -36 16 -56 9 -59 -6 -2 -41
-25 -79 -52 -226 -161 -333 -354 -334 -605 -1 -170 48 -349 122 -444 10 -13
16 -28 12 -34 -3 -6 -1 -7 5 -3 7 4 14 -3 18 -18 3 -14 11 -24 18 -23 6 1 10
-4 8 -11 -1 -8 1 -11 6 -8 13 8 54 -38 45 -50 -5 -5 -4 -6 0 -2 5 3 38 -17 75
-45 171 -129 379 -180 590 -143 51 9 120 27 154 41 33 13 65 22 71 18 6 -3 7
-1 3 5 -6 10 7 17 17 10 2 -2 11 5 21 15 10 9 23 14 29 10 7 -3 9 -3 5 2 -7 7
32 45 46 45 4 0 23 16 42 35 19 20 39 33 44 30 6 -3 7 0 5 7 -6 15 39 60 50
50 4 -4 6 -2 5 3 -5 22 1 36 12 29 6 -4 8 -3 5 3 -6 9 12 39 44 76 3 5 24 0
45 -11 22 -10 53 -22 69 -26 55 -13 73 -32 80 -83 6 -44 74 -194 115 -253 43
-63 65 -126 68 -199 5 -88 -9 -143 -45 -170 -33 -27 -80 -28 -88 -2 -8 25 -45
35 -45 13 0 -23 11 -37 37 -51 52 -27 124 2 154 61 46 90 33 187 -46 334 -24
45 -41 85 -37 89 4 5 1 4 -7 0 -11 -6 -13 -4 -8 9 4 9 3 15 -2 12 -12 -8 -50
84 -57 135 l-6 41 65 -36 c176 -99 415 -138 619 -102 118 22 194 51 298 115
77 48 98 57 110 48 13 -10 13 -10 2 4 -10 14 -8 19 14 34 68 44 212 217 242
290 18 43 202 217 202 191 0 -4 9 2 21 12 24 23 121 62 154 62 38 0 85 -12 80
-21 -3 -4 0 -11 6 -15 8 -5 9 -3 4 6 -10 16 28 5 71 -21 80 -49 182 -202 198
-300 6 -36 5 -37 -46 -63 -70 -35 -108 -85 -108 -143 0 -75 65 -109 122 -63
14 10 29 16 34 12 5 -4 6 -3 2 1 -3 5 2 27 12 50 10 23 21 61 25 84 4 24 10
45 13 47 16 9 120 -15 171 -40 31 -15 107 -58 168 -95 157 -94 245 -113 360
-78 39 12 89 67 98 107 7 35 -16 99 -39 108 -9 3 -13 10 -10 15 3 5 -2 6 -10
3 -23 -9 -19 -34 10 -65 18 -19 23 -33 19 -50 -8 -31 -37 -69 -55 -73 -8 -2
-24 -7 -35 -12 -36 -16 -166 -9 -220 13 -28 11 -107 54 -176 95 -125 76 -204
108 -266 108 -28 0 -33 4 -33 23 0 12 -13 58 -28 103 -55 158 -158 267 -272
288 -19 3 -80 2 -134 -3 -81 -8 -112 -16 -165 -43 -36 -18 -69 -32 -74 -30 -5
1 -6 -2 -3 -6 3 -5 -4 -18 -16 -28 -21 -19 -21 -19 -14 6 3 14 11 72 17 130
21 203 -30 455 -123 607 -11 18 -16 38 -12 44 4 7 3 9 -4 6 -5 -4 -27 15 -47
43 -21 28 -54 63 -74 78 -76 57 -139 110 -135 114 2 3 -2 5 -9 5 -6 0 -30 11
-52 24 -48 30 -153 74 -215 90 -25 6 -52 14 -60 17 -8 2 -22 6 -30 7 -8 1 -44
8 -80 14 -86 15 -145 14 -209 -3 -38 -10 -53 -10 -56 -2 -1 6 -13 40 -25 76
-12 36 -23 73 -23 82 -1 9 -3 15 -6 13 -2 -3 -12 8 -22 24 -28 46 -12 103 79
296 114 241 117 246 127 238 4 -4 5 -3 1 4 -4 7 2 32 13 55 41 90 188 395 206
428 10 19 20 40 21 46 1 5 53 116 116 245 l114 234 66 33 c149 73 208 190 144
285 -13 19 -21 39 -18 43 4 4 1 4 -5 0 -7 -4 -13 -3 -13 2 0 10 -3 10 -78 18
-42 5 -59 2 -88 -15 -41 -25 -44 -25 -44 -8 0 8 -15 30 -32 51 -43 49 -89 57
-137 24 -98 -66 -106 -225 -16 -342 36 -48 43 -62 23 -50 -7 4 -8 3 -4 -4 4
-6 -2 -29 -13 -51 -12 -22 -46 -104 -77 -183 -58 -149 -192 -489 -272 -690
-26 -64 -51 -114 -56 -111 -5 4 -6 1 -3 -4 4 -6 -1 -32 -10 -59 -9 -27 -18
-43 -20 -37 -6 16 87 1101 103 1208 7 48 31 88 46 79 6 -4 8 -3 4 4 -3 6 2 17
12 24 10 7 21 21 25 31 4 10 12 15 17 12 6 -4 9 -3 8 2 -3 13 13 54 20 49 13
-8 13 129 1 159 -7 17 -11 34 -10 38 1 5 -3 6 -8 3 -5 -4 -13 0 -18 7 -26 44
-128 51 -185 12z m28 -714 c-20 -307 -49 -589 -62 -616 -14 -27 -15 -16 -9
125 6 159 12 277 20 365 2 28 7 88 11 135 4 47 12 88 17 92 24 15 30 -8 23
-101z m455 -59 c-19 -47 -153 -334 -189 -404 -11 -21 -23 -34 -27 -30 -5 4 -5
2 -2 -5 4 -6 -5 -35 -20 -65 -15 -29 -26 -56 -25 -60 1 -5 -2 -8 -6 -8 -4 0
-16 -14 -26 -31 -55 -94 1 60 96 261 22 47 48 105 58 130 33 81 56 121 65 113
4 -4 5 -2 1 5 -9 15 32 104 45 97 5 -4 6 1 3 10 -8 20 13 45 31 39 12 -5 11
-14 -4 -52z m783 -2638 c-32 -19 -86 -59 -119 -87 l-60 -52 29 41 c29 40 98
98 111 94 4 -1 11 3 14 8 6 9 56 30 75 31 6 1 -17 -15 -50 -35z m412 -36 l29
-33 -32 29 c-31 28 -38 36 -30 36 2 0 16 -15 33 -32z m121 -403 c-3 -62 -28
-104 -71 -120 -23 -8 -30 -6 -42 10 -16 22 -19 75 -3 75 5 0 8 4 5 9 -8 12 41
54 54 46 6 -3 9 -1 8 6 -2 7 8 16 22 20 14 4 26 7 27 8 1 1 1 -24 0 -54z
m-2274 10 c-4 -5 -3 -7 2 -3 9 9 35 -9 35 -23 0 -5 -13 -3 -30 6 -29 15 -38
34 -23 48 9 10 23 -15 16 -28z"/>
</g>
</svg>
